<svg width="1360" height="484" viewBox="0 0 1360 484" fill="none" xmlns="http://www.w3.org/2000/svg">
<path d="M530.415 484V138.286H619.678V484H530.415Z" fill="#111111"/>
<path d="M866.065 128.607C903.892 128.607 935.03 141.283 959.48 166.635C984.39 191.987 996.845 227.02 996.845 271.732V484H907.583V282.795C907.583 259.747 901.355 242.231 888.9 230.246C876.444 217.801 859.837 211.578 839.078 211.578C816.013 211.578 797.561 218.723 783.721 233.012C769.882 247.301 762.963 268.736 762.963 297.315V484H673.7V138.286H762.963V177.006C784.644 144.74 819.011 128.607 866.065 128.607Z" fill="#111111"/>
<path d="M1360 484H1256.21L1130.27 327.046V484H1041.01L1041 0H1130.27L1130.27 290.4L1249.29 138.286H1355.85L1216.76 309.069L1360 484Z" fill="#111111"/>
<path fill-rule="evenodd" clip-rule="evenodd" d="M387.131 484V331.398C397.187 287.859 432.251 253.879 476.393 245.372V484H387.131ZM476.393 241.249C432.251 232.743 397.187 198.763 387.131 155.224V0H476.393V241.249ZM356.36 343.64C356.36 384.665 341.829 418.314 312.766 444.589C283.704 470.863 247.953 484 205.512 484H0V0.00104544H208.972C250.49 0.00104544 285.319 12.9077 313.458 38.721C342.059 64.0733 356.36 96.5704 356.36 136.212V148.52C347.314 202.32 300.484 243.311 244.072 243.311C300.484 243.311 347.314 284.301 356.36 338.101V343.64ZM205.512 93.5713H95.4906V200.051H205.512C220.274 200.051 232.499 194.981 242.186 184.84C252.335 174.699 257.409 162.023 257.409 146.811C257.409 131.6 252.566 118.924 242.878 108.783C233.191 98.6417 220.736 93.5713 205.512 93.5713ZM205.512 399.182C221.658 399.182 235.036 393.881 245.646 383.279C256.256 372.216 261.561 358.388 261.561 341.794C261.561 325.66 256.256 312.293 245.646 301.691C235.036 290.628 221.658 285.097 205.512 285.097H95.4906V399.182H205.512Z" fill="#111111"/>
</svg>
