<svg width="90" height="32" viewBox="0 0 90 32" fill="none" xmlns="http://www.w3.org/2000/svg">
<path d="M35.101 32V9.14291H41.0081V32H35.101Z" fill="#033C00"/>
<path d="M57.3131 8.50291C59.8164 8.50291 61.877 9.341 63.495 11.0172C65.1435 12.6934 65.9677 15.0096 65.9677 17.9657V32H60.0606V18.6972C60.0606 17.1734 59.6485 16.0153 58.8242 15.2229C58 14.4 56.901 13.9886 55.5272 13.9886C54.0009 13.9886 52.7797 14.461 51.8639 15.4058C50.9481 16.3505 50.4902 17.7676 50.4902 19.6572V32H44.5831V9.14291H50.4902V11.7029C51.925 9.56957 54.1993 8.50291 57.3131 8.50291Z" fill="#033C00"/>
<path d="M90 32H83.1313L74.7972 21.6229V32H68.8901L68.8898 0H74.7969L74.7972 19.2L82.6734 9.14291H89.7252L80.5211 20.4343L90 32Z" fill="#033C00"/>
<path fill-rule="evenodd" clip-rule="evenodd" d="M25.6189 32V21.9106C26.2845 19.032 28.6048 16.7854 31.526 16.223V32H25.6189ZM31.526 15.9503C28.6048 15.3879 26.2845 13.1413 25.6189 10.2627V0H31.526V15.9503ZM23.5826 22.72C23.5826 25.4324 22.621 27.6572 20.6978 29.3943C18.7745 31.1314 16.4086 32 13.6001 32H0V6.91197e-05H13.829C16.5765 6.91197e-05 18.8814 0.853401 20.7436 2.56006C22.6363 4.23625 23.5826 6.38482 23.5826 9.00576V9.81952C22.984 13.3765 19.8849 16.0867 16.1518 16.0867C19.8849 16.0867 22.984 18.7968 23.5826 22.3538V22.72ZM13.6001 6.18653H6.31923V13.2265H13.6001C14.577 13.2265 15.386 12.8913 16.027 12.2208C16.6986 11.5503 17.0345 10.7122 17.0345 9.70652C17.0345 8.70081 16.7139 7.86272 16.0728 7.19224C15.4317 6.52177 14.6075 6.18653 13.6001 6.18653ZM13.6001 26.3922C14.6686 26.3922 15.5539 26.0417 16.256 25.3408C16.9581 24.6093 17.3092 23.6951 17.3092 22.5979C17.3092 21.5313 16.9581 20.6474 16.256 19.9465C15.5539 19.2151 14.6686 18.8494 13.6001 18.8494H6.31923V26.3922H13.6001Z" fill="#033C00"/>
</svg>
